<svg width="32" height="33" viewBox="0 0 32 33" fill="none" xmlns="http://www.w3.org/2000/svg">
<path d="M23.3846 16.5C23.3846 16.8264 23.2549 17.1395 23.0241 17.3703C22.7933 17.6011 22.4803 17.7308 22.1538 17.7308H9.84616C9.51974 17.7308 9.20669 17.6011 8.97587 17.3703C8.74506 17.1395 8.61539 16.8264 8.61539 16.5C8.61539 16.1736 8.74506 15.8605 8.97587 15.6297C9.20669 15.3989 9.51974 15.2692 9.84616 15.2692H22.1538C22.4803 15.2692 22.7933 15.3989 23.0241 15.6297C23.2549 15.8605 23.3846 16.1736 23.3846 16.5ZM32 16.5C32 19.6645 31.0616 22.7579 29.3035 25.3891C27.5454 28.0203 25.0466 30.0711 22.1229 31.2821C19.1993 32.4931 15.9823 32.8099 12.8786 32.1926C9.77486 31.5752 6.92394 30.0513 4.6863 27.8137C2.44866 25.5761 0.924806 22.7251 0.307443 19.6214C-0.309921 16.5177 0.00693254 13.3007 1.21793 10.3771C2.42894 7.45344 4.4797 4.95459 7.11088 3.19649C9.74207 1.43838 12.8355 0.5 16 0.5C20.2421 0.50448 24.3092 2.19163 27.3088 5.19124C30.3084 8.19085 31.9955 12.2579 32 16.5ZM29.5385 16.5C29.5385 13.8223 28.7444 11.2048 27.2568 8.97843C25.7692 6.75204 23.6548 5.01679 21.1809 3.99209C18.7071 2.9674 15.985 2.69929 13.3588 3.22168C10.7326 3.74406 8.32026 5.03347 6.42687 6.92686C4.53348 8.82025 3.24407 11.2326 2.72168 13.8588C2.1993 16.485 2.4674 19.2071 3.4921 21.6809C4.51679 24.1548 6.25205 26.2692 8.47844 27.7568C10.7048 29.2444 13.3223 30.0385 16 30.0385C19.5894 30.0344 23.0306 28.6067 25.5686 26.0686C28.1067 23.5306 29.5344 20.0894 29.5385 16.5Z" fill="#9B6647"/>
</svg>
