<svg width="32" height="33" viewBox="0 0 32 33" fill="none" xmlns="http://www.w3.org/2000/svg">
<path d="M16 0.5C12.8355 0.5 9.74207 1.43838 7.11088 3.19649C4.4797 4.95459 2.42894 7.45344 1.21793 10.3771C0.00693255 13.3007 -0.309921 16.5177 0.307443 19.6214C0.924806 22.7251 2.44866 25.5761 4.6863 27.8137C6.92394 30.0513 9.77486 31.5752 12.8786 32.1926C15.9823 32.8099 19.1993 32.4931 22.1229 31.2821C25.0466 30.0711 27.5454 28.0203 29.3035 25.3891C31.0616 22.7579 32 19.6645 32 16.5C31.9955 12.2579 30.3084 8.19085 27.3088 5.19124C24.3092 2.19163 20.2421 0.50448 16 0.5ZM16 30.0385C13.3223 30.0385 10.7048 29.2444 8.47844 27.7568C6.25205 26.2692 4.51679 24.1548 3.4921 21.6809C2.4674 19.2071 2.1993 16.485 2.72168 13.8588C3.24407 11.2326 4.53348 8.82025 6.42687 6.92686C8.32026 5.03347 10.7326 3.74406 13.3588 3.22168C15.985 2.69929 18.7071 2.9674 21.1809 3.99209C23.6548 5.01679 25.7692 6.75204 27.2568 8.97843C28.7444 11.2048 29.5385 13.8223 29.5385 16.5C29.5344 20.0894 28.1067 23.5306 25.5686 26.0686C23.0306 28.6067 19.5894 30.0344 16 30.0385ZM23.3846 16.5C23.3846 16.8264 23.2549 17.1395 23.0241 17.3703C22.7933 17.6011 22.4803 17.7308 22.1538 17.7308H17.2308V22.6538C17.2308 22.9803 17.1011 23.2933 16.8703 23.5241C16.6395 23.7549 16.3264 23.8846 16 23.8846C15.6736 23.8846 15.3605 23.7549 15.1297 23.5241C14.8989 23.2933 14.7692 22.9803 14.7692 22.6538V17.7308H9.84616C9.51974 17.7308 9.20669 17.6011 8.97587 17.3703C8.74506 17.1395 8.61539 16.8264 8.61539 16.5C8.61539 16.1736 8.74506 15.8605 8.97587 15.6297C9.20669 15.3989 9.51974 15.2692 9.84616 15.2692H14.7692V10.3462C14.7692 10.0197 14.8989 9.70668 15.1297 9.47587C15.3605 9.24505 15.6736 9.11538 16 9.11538C16.3264 9.11538 16.6395 9.24505 16.8703 9.47587C17.1011 9.70668 17.2308 10.0197 17.2308 10.3462V15.2692H22.1538C22.4803 15.2692 22.7933 15.3989 23.0241 15.6297C23.2549 15.8605 23.3846 16.1736 23.3846 16.5Z" fill="#9B6647"/>
</svg>
